<?xml version="1.0" ?><svg data-name="Layer 2" id="Layer_2" viewBox="0 0 1000 1000" xmlns="http://www.w3.org/2000/svg"><defs><style>.cls-1{fill:none;stroke:#020202;stroke-linecap:round;stroke-miterlimit:10;stroke-width:22px;}</style></defs><path class="cls-1" d="M398.75,592.63V279.4a7.66,7.66,0,0,0-7.66-7.66H286.92a7.66,7.66,0,0,0-7.66,7.66V720.6a7.66,7.66,0,0,0,7.66,7.66H392a6.75,6.75,0,0,0,6.75-6.75V670.19"/><path class="cls-1" d="M559.74,626.13V390.26c0-3.19-3.42-5.77-7.66-5.77H447.92c-4.24,0-7.66,2.58-7.66,5.77V722.49c0,3.19,3.42,5.77,7.66,5.77H553c3.72,0,6.74-2.28,6.74-5.08V684.53"/><path class="cls-1" d="M720.74,654.8V485.15c0-2.29-3.43-4.15-7.66-4.15H608.91c-4.23,0-7.66,1.86-7.66,4.15v239c0,2.29,3.43,4.15,7.66,4.15H714c3.73,0,6.75-1.64,6.75-3.66V696.81"/></svg>